<svg xmlns="http://www.w3.org/2000/svg" viewBox="0 0 474 454"><g fill="none" stroke-width="2"><path stroke="#8d969d" d="M210.21 133.75c-4.48 2.98-23.33 16.73-18.23 20.9 9.12 7.44 61.02-27.93 69.78-34.63 18.79-14.38 65.91-57.33 37.99-83.81" vector-effect="non-scaling-stroke"/><path stroke="#929ca4" d="M299.75 36.21c-16.03-13.14-43.36-15.02-63.07-14.28q-22.7.86-44.65 6.71c-2.35.62-14.74 4.32-11.16 8.52 2.46 2.89 9.73 3.92 13.14 3.87 21.83-.28 41.77.17 62.42 5.27 5 1.23 12.53 3.74 15.79 7.8 16.31 20.3-48.64 69.82-62.01 79.65" vector-effect="non-scaling-stroke"/><path stroke="#1f3342" d="M299.75 36.21c-2.41.05 3.39 6.63 3.9 7.37.52.75.7 1.84 1.63 2.47a.89.39 31.4 0 1 .49.71l-.18.56a1.49.86 53.8 0 0 .1.91c3.09 7.52-.24 18.6-3.77 25.05" vector-effect="non-scaling-stroke"/><path stroke="#4f6372" d="M301.92 73.28q-.88-9.71-1.8-15.35-1.98-12.2-7.91-23.8c-2.94-5.75-19.3-8.26-25.14-9.13" vector-effect="non-scaling-stroke"/><path stroke="#6f818d" d="m267.07 25-8.32-.96" vector-effect="non-scaling-stroke"/><path stroke="#929ca4" d="M258.75 24.04c-23.99-2-53.15-.14-74.71 8.8q-1.59.66-2.46 2.14c-1.41 2.41 7.54 2.34 8.83 2.25q16.9-1.15 33.84-1.44" vector-effect="non-scaling-stroke"/><path stroke="#2f4455" d="m224.25 35.79 3.3 4.23a1.18.77 65 0 0 .74.46q17.77 1.06 34.64 6.74c7.86 2.65 13.55 7.06 13.26 16.02" vector-effect="non-scaling-stroke"/><path stroke="#445968" d="M276.19 63.24C269.01 88.5 242 110.6 220.96 127" vector-effect="non-scaling-stroke"/><path stroke="#1f3342" d="M220.96 127c-2.04 1.52-8.48 7.3-10.75 6.75" vector-effect="non-scaling-stroke"/><path stroke="#a7b5be" d="M272 86.21q-17.58 19.66-38.46 35.79" vector-effect="non-scaling-stroke"/><path stroke="#3f5361" d="M220.96 127q.21 1.81 1.73 1.96a1.29.99-56.7 0 0 .87-.3c2.56-2.09 5.9-4.07 7.98-6.52q.83-.98 2-.14" vector-effect="non-scaling-stroke"/><path stroke="#828f98" d="M233.54 122q-17.48 14.2-38.02 28-.32.22-.42.44-.29.66.46.2l9.69-5.85" vector-effect="non-scaling-stroke"/><path stroke="#3c505d" d="M205.25 144.79q1.11.95 1.44 2.51a.65.42 77.5 0 0 .55.54q2.47-.56 4.55.53a1.15.58-33.4 0 0 .89-.1c2.25-1.08 4.65-1.47 6.73-2.53q11.5-5.86 22.34-13.04" vector-effect="non-scaling-stroke"/><path stroke="#667783" d="M241.75 132.7q22.25-13.67 40.61-32.36" vector-effect="non-scaling-stroke"/><path stroke="#dce4e8" d="M258.75 24.04c-.26 1.36-.01 2.13 1.18 2.92 2.43 1.63 11.78 9.07 10.06 12.4a.65.61 20 0 1-.73.31q-12.18-3.15-24.76-3.63" vector-effect="non-scaling-stroke"/><path stroke="#9da7b0" d="M244.5 36.04q-10.12-.78-20.25-.25" vector-effect="non-scaling-stroke"/><path stroke="#8c9ba6" d="M277.75 45.21c12.95 8.19 10.04 19.76 2.02 30.1" vector-effect="non-scaling-stroke"/><path stroke="#4f6474" d="M279.77 75.31q2.27-7.75-3.58-12.07" vector-effect="non-scaling-stroke"/><path stroke="#99abb5" d="M267.07 25q1.73 3.67 3.47 5.72 3.66 4.31 6.05 8.08c1.56 2.46 4.12 4.18 5.37 7.2" vector-effect="non-scaling-stroke"/><path stroke="#ccd8de" d="M281.96 46q-1.9-2.13-4.21-.79" vector-effect="non-scaling-stroke"/><path stroke="#7a8c98" d="M277.75 45.21c-10.28-5.56-20.47-6.45-32.77-7.87a.32.28-71.1 0 1-.19-.46q.3-.56-.29-.84" vector-effect="non-scaling-stroke"/><path stroke="#4a5d6b" d="M301.92 73.28q-7.29 15.13-19.56 27.06" vector-effect="non-scaling-stroke"/><path stroke="#96a7b2" d="M282.36 100.34c.14-4.14 2.2-6.42 2.83-10.14.5-2.96 1.82-6.02 2.21-8.57.81-5.32 1.94-10.88.14-16.13" vector-effect="non-scaling-stroke"/><path stroke="#acbac3" d="M287.54 65.5c2.89-7.71 2.47-15.54-5.58-19.5" vector-effect="non-scaling-stroke"/><path stroke="#a3b2b9" d="m225.5 130.96-20.25 13.83" vector-effect="non-scaling-stroke"/><path stroke="#c8d4db" d="m287.54 65.5-3.49 6.24" vector-effect="non-scaling-stroke"/><path stroke="#ccd8de" d="m284.05 71.74-1.34 2.76" vector-effect="non-scaling-stroke"/><path stroke="#c8d4db" d="m282.71 74.5-4.04 4.9" vector-effect="non-scaling-stroke"/><path stroke="#dae3e9" d="M278.67 79.4q-2.11 7.89-5.59 15.24-.76 1.59-2.69 3.83c-2.08 2.4-3.09 5.57-5.38 7.61q-7.87 6.99-17.44 11.38c-2.52 1.15-4.86 1.29-7.57 1.75" vector-effect="non-scaling-stroke"/><path stroke="#e4ecf0" d="M240 119.21c3.01-3.1 5.72-2.09 9.03-3.83 7.21-3.77 14.12-8.31 18.85-14.99q3.67-5.18 5.69-10.31 1.01-2.54-1.57-3.87" vector-effect="non-scaling-stroke"/><path stroke="#a1b0ba" d="M272 86.21q4.5-5.25 7.77-10.9" vector-effect="non-scaling-stroke"/><path stroke="#889aa4" d="M241.75 132.7q-7.1-1.59-14.44-.22a.91.76-22 0 1-.83-.27l-.98-1.25" vector-effect="non-scaling-stroke"/><path stroke="#ced9df" d="m225.5 130.96 13.25-10.75" vector-effect="non-scaling-stroke"/><path stroke="#c4d0d8" d="M238.75 120.21c2.25.09 4.36.26 6.51-.56 6.03-2.3 11.95-6.14 16.75-9.89 4.18-3.27 7.02-7.71 9.97-11.63 3.56-4.75 6.09-11.97 6.69-18.73" vector-effect="non-scaling-stroke"/><path stroke="#b6c5cd" d="M282.71 74.5c1.27 9.48-3.78 19.9-9.23 27.36-3.22 4.41-6.24 8.79-10.33 12.23q-.41.34.06.1c3.3-1.7 4.34-4.62 7.31-6.46q1.11-.68 2.66-3.79c2.3-4.63 6.12-8.77 7.71-13.37q3.13-9.1 3.16-18.83" vector-effect="non-scaling-stroke"/><path stroke="#e0e8ed" d="m238.75 120.21 1.25-1" vector-effect="non-scaling-stroke"/><path stroke="#959fa7" d="M319.46 187.25c-6.01-7.22-21.42-26.93-8.5-35.09l4.64-2.93" vector-effect="non-scaling-stroke"/><path stroke="#878d90" d="M315.6 149.23q14.01-2.23 21.4-2.71 7-.46 42.18-1.48 6.03-.18 11.55-2.51 2.11-.9 1.5-3.1c-1.15-4.15-7.67-6.62-11.45-7.54q-28.88-7.04-58.58-5.93c-28.02 1.05-68.76 15.07-47.12 52.48q5.95 10.28 15.01 21.24 16.23 19.62 32.44 39.25c6.57 7.96 21.82 28.26 2.92 33.68q-10.16 2.91-20.7 3.88c-17.75 1.63-45.37 1.38-73.97 4.02q-2.51.23-4.25 2.05c-5.32 5.57 6 9.23 10.36 9.98q30.84 5.29 62.1 5.9 21.15.41 39.45-3.36c17.71-3.65 35.66-14.82 33.19-34.7-1.59-12.82-11.8-25.49-20.62-36.15q-15.49-18.73-31.55-36.98" vector-effect="non-scaling-stroke"/><path stroke="#1d2d38" d="M315.6 149.23q12.55-4.93 26.16-3.96 1.01.07 3.74-.48" vector-effect="non-scaling-stroke"/><path stroke="#4e5d66" d="M345.5 144.79q15.24-.77 30.5-.85c3.22-.02 11.21-.2 14.25-3.15" vector-effect="non-scaling-stroke"/><path stroke="#31414d" d="M390.25 140.79c3.36-6.41-19.18-9.72-24.75-10.58" vector-effect="non-scaling-stroke"/><path stroke="#4e5d66" d="m365.5 130.21-19.5-2.42" vector-effect="non-scaling-stroke"/><path stroke="#878d90" d="M346 127.79q-20.66-2.38-40.84 1.49c-16.95 3.24-39.78 13.92-34.1 35.64q1.26 4.82 7.25 16" vector-effect="non-scaling-stroke"/><path stroke="#4b5a61" d="M278.31 180.92c13.13 21.22 29.76 38.65 46.94 59.62" vector-effect="non-scaling-stroke"/><path stroke="#253541" d="M325.25 240.54c3.12 4.67 8.37 10.15 9.82 15.18 5.72 19.79-17.06 20.63-29.36 21.92q-14.06 1.48-28.21 1.9" vector-effect="non-scaling-stroke"/><path stroke="#4b5a61" d="m277.5 279.54-28.5.75" vector-effect="non-scaling-stroke"/><path stroke="#4e5d66" d="M249 280.29q-8.84.57-17.61 1.43c-4.47.44-6.85 4.57-1.98 7.21q2.67 1.45 5.84 2.05 18.01 3.41 34.75 4.73" vector-effect="non-scaling-stroke"/><path stroke="#3a4a54" d="m270 295.71 19.25 1.25" vector-effect="non-scaling-stroke"/><path stroke="#31414d" d="M289.25 296.96c15.78.18 29.22.6 46.49-2.49 17.91-3.19 39.55-14.64 34.46-36.76-2.56-11.16-10.68-21.94-18.2-30.75" vector-effect="non-scaling-stroke"/><path stroke="#4b5a61" d="m352 226.96-8.71-10.21" vector-effect="non-scaling-stroke"/><path stroke="#5b6870" d="M343.29 216.75q-10.59-12.53-21.48-24.81-1.18-1.34-3.31-4.4" vector-effect="non-scaling-stroke"/><path stroke="#1d2d38" d="m318.5 187.54.96-.29" vector-effect="non-scaling-stroke"/><path stroke="#6f8392" d="M365.5 130.21q-.8 5.74 2.4 10.44a1.11 1.09-13.4 0 0 .78.47q10.8 1.2 21.57-.33" vector-effect="non-scaling-stroke"/><path stroke="#5c6f7c" d="M345.5 144.79c-7.02-3.76-19.38-1.67-28.75-.08" vector-effect="non-scaling-stroke"/><path stroke="#aab9c2" d="M316.75 144.71c-1.2-3.04-5.38.78-4.63-1.6" vector-effect="non-scaling-stroke"/><path stroke="#96a7af" d="M343.29 216.75q-3.32 7.56-8.28 14.15c-1.26 1.67-1.72 4.09-3.55 5.82a1.15 1.12-43.1 0 1-1.61-.04l-8.9-9.53" vector-effect="non-scaling-stroke"/><path stroke="#becad2" d="M320.95 227.15q4.63-4.4 7.85-11.38 2.32-5.03 3.17-8.79a1.07 1.04 32.5 0 0-.21-.89q-5.75-7.25-12.19-13.9c-.77-.79-1.09-1.91-1.96-2.74q-4.42-4.21-7.8-9.12" vector-effect="non-scaling-stroke"/><path stroke="#92a0aa" d="M333.95 244.69c5.39 6.93 14.45 20.2 7.19 27.92-5.53 5.89-20.19 7.84-28.64 8.58q-24.99 2.2-48.5 1.27" vector-effect="non-scaling-stroke"/><path stroke="#607480" d="M264 282.46q.43-1.66 2.09-1.25a.76.51-57.3 0 0 .63-.27q.22-.26.59-.05c1.05-.06 11.19.09 10.19-1.35" vector-effect="non-scaling-stroke"/><path stroke="#7b8d96" d="M287.03 191.07q2.93 5.72 7.35 10.42c.62.66 1.65.9 2.16.01" vector-effect="non-scaling-stroke"/><path stroke="#6c808d" d="M352 226.96q-2.57 2.86-4.55 6.12c-3 4.95-6.16 9.77-9.24 14.67" vector-effect="non-scaling-stroke"/><path stroke="#b8c5ca" d="M338.21 247.75q-1.42-2.6-4.26-3.06" vector-effect="non-scaling-stroke"/><path stroke="#607480" d="m333.95 244.69-5.32-6.03q-1-1.13-1.39.3-.43 1.55-1.99 1.58" vector-effect="non-scaling-stroke"/><path stroke="#5b7080" d="M289.25 296.96q2.51-2.2 5.15-4.23c3.67-2.81 10.24-2.68 10.6-8.94" vector-effect="non-scaling-stroke"/><path stroke="#9eacb7" d="M305 283.79q13.31-.61 26.12-3.97c20.21-5.32 17.98-18.68 7.09-32.07" vector-effect="non-scaling-stroke"/><path stroke="#697a86" d="M318.5 187.54q-5.01-5.41-8.94-11.67a.95.32 56.5 0 0-.84-.66l-.76.76a.98.34 38.8 0 0 .57.91q1.67 1.33 1.28 3.45" vector-effect="non-scaling-stroke"/><path stroke="#818f9a" d="m309.81 180.33-3.02-3.33" vector-effect="non-scaling-stroke"/><path stroke="#798994" d="M303 171.46c-9.47-14.89-1.67-24.19 13.75-26.75" vector-effect="non-scaling-stroke"/><path stroke="#c6cfd5" d="M346 127.79q-.58 4.09.3 7.37.79 2.97-1.21 4.74a1.51 1.23 18.8 0 1-.88.33c-10.85.4-21.18-.16-32.09 2.88" vector-effect="non-scaling-stroke"/><path stroke="#e3e9ec" d="M312.12 143.11c-15.16 2-20.24 15.74-11.54 28.01.83 1.17.98 2.83 2.43 3.81q.79.54.34-.26l-.8-1.44a1.05.04 60.5 0 1-.45-.87q.01-.79.9-.9" vector-effect="non-scaling-stroke"/><path stroke="#959fa7" d="m303 171.46 3.79 5.54" vector-effect="non-scaling-stroke"/><path stroke="#ebeff2" d="M306.79 177c.61 4.27 5.58 10.24 8.53 12.42 4.76 3.52 3.33 8.63.43 12.79q-1.94 2.79-6.06 12.92" vector-effect="non-scaling-stroke"/><path stroke="#c3ccd0" d="m309.69 215.13-13.15-13.63" vector-effect="non-scaling-stroke"/><path stroke="#b7c0c5" d="m296.54 201.5-9.51-10.43" vector-effect="non-scaling-stroke"/><path stroke="#c3ccd0" d="m287.03 191.07-7.21-9.93a.92.64 60.7 0 0-.82-.4l-.69.18" vector-effect="non-scaling-stroke"/><path stroke="#899ca5" d="m256.75 282.29-5.68-.28a.71.56 84 0 1-.55-.57q-.2-1.09-1.52-1.15" vector-effect="non-scaling-stroke"/><path stroke="#788c99" d="M287.25 284.29q-1.81 3.26-5.5 4.71c-1.6.62-10.64 3.59-11.75 6.71" vector-effect="non-scaling-stroke"/><path stroke="#a7b5be" d="m305 283.79-17.75.5" vector-effect="non-scaling-stroke"/><path stroke="#bbc8cf" d="m287.25 284.29-32.68-.59a.36.32 12.6 0 1-.33-.47q.64-1.27 2.51-.94" vector-effect="non-scaling-stroke"/><path stroke="#b8c5ca" d="m256.75 282.29 7.25.17" vector-effect="non-scaling-stroke"/><path stroke="#aebcc3" d="m320.95 227.15-11.26-12.02" vector-effect="non-scaling-stroke"/><path stroke="#959fa7" d="M121.5 189.46c25.81.65 53.87-2.19 78.82 5.93 21.77 7.09 18.15 25.52 7.72 40.36" vector-effect="non-scaling-stroke"/><path stroke="#85888a" d="M208.04 235.75c-16.82 24.32-47.76 47.27-75.58 57.5" vector-effect="non-scaling-stroke"/><path stroke="#959fa7" d="M132.46 293.25q-5.42 1.72-11.23 1.36a1.15 1.06-15.7 0 1-.82-.42q-2-2.56-.71-6.01 1.01-2.72 3.7-12.37" vector-effect="non-scaling-stroke"/><path stroke="#85888a" d="M123.4 275.81q6.85-12.43 13.56-24.7 7.08-12.93 14.44-25.69c2.3-4 10.13-17.74 2.37-18.29-8.47-.61-17.83 14.79-22.24 20.77-21.29 28.89-41.1 59.95-56.24 92.54-1.11 2.38-1.87 5.3-2.23 7.71q-.54 3.66 3.17 3.82c13.1.56 29.39-4.95 41.64-9.49 49.99-18.55 106.21-49.96 129.92-100.47 19.96-42.56-33.84-52.29-61.3-53.16q-29.46-.93-58.1 5.85-8.05 1.9-15.4 5.53c-4.76 2.35-3.39 5.94.71 7.48q3.81 1.44 7.8 1.75" vector-effect="non-scaling-stroke"/><path stroke="#1b2831" d="M123.4 275.81q5.69-14.75 13.81-28.31" vector-effect="non-scaling-stroke"/><path stroke="#424f57" d="M137.21 247.5q5.59-8.58 10.18-17.81" vector-effect="non-scaling-stroke"/><path stroke="#1b2831" d="M147.39 229.69q1.54-1.46 1.57-3.69" vector-effect="non-scaling-stroke"/><path stroke="#7a8184" d="M148.96 226c1.66-2.69 7.46-12.99 6.8-15.78-1.79-7.64-13.33 4.95-14.88 6.89" vector-effect="non-scaling-stroke"/><path stroke="#626d72" d="m140.88 217.11-10.92 14.64" vector-effect="non-scaling-stroke"/><path stroke="#48555a" d="M129.96 231.75 121.21 244" vector-effect="non-scaling-stroke"/><path stroke="#37454e" d="m121.21 244-17.65 26.94" vector-effect="non-scaling-stroke"/><path stroke="#586369" d="M103.56 270.94Q89.51 293.46 78 317.21" vector-effect="non-scaling-stroke"/><path stroke="#626d72" d="m78 317.21-1.75 4" vector-effect="non-scaling-stroke"/><path stroke="#70787d" d="m76.25 321.21-1.73 5.54" vector-effect="non-scaling-stroke"/><path stroke="#747b80" d="M74.52 326.75c-.59 2.44.18 4.05 2.9 3.98q10.65-.29 20.83-3.52" vector-effect="non-scaling-stroke"/><path stroke="#586369" d="M98.25 327.21q44.09-12.73 83.04-36.96" vector-effect="non-scaling-stroke"/><path stroke="#37454e" d="M181.29 290.25q26.4-15.84 46.71-38.96" vector-effect="non-scaling-stroke"/><path stroke="#4f5c63" d="M228 251.29q9.44-11.05 15.96-24.04" vector-effect="non-scaling-stroke"/><path stroke="#697177" d="M243.96 227.25q4.14-8.06 6.23-15.06 3.08-10.33-2.59-20.61" vector-effect="non-scaling-stroke"/><path stroke="#85888a" d="M247.6 191.58q-11.63-12.03-27.32-16.53-6.64-1.9-19.65-3.62c-26.66-3.51-54.44-.42-80.22 6.93q-4.95 1.41-8.78 4.24-2.06 1.51.16 2.3l3.21 1.14" vector-effect="non-scaling-stroke"/><path stroke="#1b2831" d="m115 186.04 3.75 1.42" vector-effect="non-scaling-stroke"/><path stroke="#28333f" d="m118.75 187.46 2 .5" vector-effect="non-scaling-stroke"/><path stroke="#1b2831" d="M120.75 187.96q1.48.14.75 1.5" vector-effect="non-scaling-stroke"/><path stroke="#8a98a1" d="M148.96 226q-3.25 3.72-6.99 9.71c-9.49 15.2-18.91 30-26.51 46.29" vector-effect="non-scaling-stroke"/><path stroke="#c8d3d9" d="M115.46 282c-3.23 1.69-.27-3.66 0-4.75" vector-effect="non-scaling-stroke"/><path stroke="#a7b5be" d="M115.46 277.25q6.77-13.89 15.04-26.96" vector-effect="non-scaling-stroke"/><path stroke="#b8c5ca" d="m130.5 250.29 8-12.75" vector-effect="non-scaling-stroke"/><path stroke="#d1dde2" d="m138.5 237.54 10.05-14.37q1.8-2.57-1.33-2.76-2.82-.16-6.34-3.3" vector-effect="non-scaling-stroke"/><path stroke="#758994" d="M130.5 250.29c-2.33-.41-9.31-4.02-9.29-6.29" vector-effect="non-scaling-stroke"/><path stroke="#e3e9ec" d="M247.6 191.58q-7.25 5.27-10.44 9.6-3.56 4.82-7.84 6.92" vector-effect="non-scaling-stroke"/><path stroke="#9da7b0" d="M229.32 208.1q-2.14-8.87-9.44-14.46" vector-effect="non-scaling-stroke"/><path stroke="#aeb6bd" d="M219.88 193.64Q198.8 182.96 175 183.29" vector-effect="non-scaling-stroke"/><path stroke="#e3e9ec" d="M175 183.29q-10.5-1.35-21.04-.41a.67.63-68.6 0 0-.4.19l-.25.25a1.6.99-61.6 0 1-.8.46l-5.51.68" vector-effect="non-scaling-stroke"/><path stroke="#959fa7" d="m147 184.46-32 1.58" vector-effect="non-scaling-stroke"/><path stroke="#8597a3" d="M115.46 277.25q-2.46.29-3.8-.94-4.31-3.98-8.1-5.37" vector-effect="non-scaling-stroke"/><path stroke="#aebdc6" d="M243.96 227.25c-1.29-.36-2.62-.54-3.86.21-4.03 2.41-8.22 5.5-12.47 7.42-1.51.68-8.09 4.74-7.38-.09" vector-effect="non-scaling-stroke"/><path stroke="#81919d" d="m229.21 208.75.11-.65" vector-effect="non-scaling-stroke"/><path stroke="#c8d4db" d="M107.71 299.5q-1.04-.06-1.52.82a1.26.93-76.8 0 1-.67.57q-1.2.31-1.53.6c-4.66 4.23-9.97 7.4-14.54 11.62-3.43 3.17-7.64 4.51-10.22 7.64q-.76.91-2.98.46" vector-effect="non-scaling-stroke"/><path stroke="#8597a3" d="M181.29 290.25c-.51-4.88-15.74.82-16.29-3.96" vector-effect="non-scaling-stroke"/><path stroke="#c2ced5" d="M98.25 327.21c2.89-6.4 9.17-10.77 15.34-13.7a.58.22-20.8 0 0 .36-.32l.05-.44a1.03.72-18.5 0 1 .49-.66c1.52-.93 5.95-4.16 4.79-5.94a1.02.8-13.2 0 0-.82-.38c-4.41.04-7.52.18-9.96-3.56" vector-effect="non-scaling-stroke"/><path stroke="#becad2" d="m108.5 302.21-.79-2.71" vector-effect="non-scaling-stroke"/><path stroke="#b0bfc7" d="m107.71 299.5.45-3.28a1.09.76-70.7 0 0-.24-.87q-.66-.62-1.03.55-.63 1.96-2.23 2.2a1.49 1.07 9.4 0 0-.83.41c-1.52 1.71-2.66 3.07-4.7 4.33q-6.42 3.97-11.77 9.3-.31.31-.84.51c-3.33 1.28-3.91 4.01-8.52 4.56" vector-effect="non-scaling-stroke"/><path stroke="#a0b1b8" d="M138.5 237.54q-4.98-1.88-8.54-5.79" vector-effect="non-scaling-stroke"/><path stroke="#607380" d="m219.25 235.71-9.25 11.5" vector-effect="non-scaling-stroke"/><path stroke="#959fa7" d="m210 247.21-2.95 3.3" vector-effect="non-scaling-stroke"/><path stroke="#445664" d="M207.05 250.51q1.49-3.68 3.76-6.55a.75.71-42.4 0 0 .06-.83q-1.65-2.6-4.37-3.42" vector-effect="non-scaling-stroke"/><path stroke="#1b2831" d="M206.5 239.71c.15-.21 4.13-4.75 1.54-3.96" vector-effect="non-scaling-stroke"/><path stroke="#384a5c" d="M120.75 187.96c.3-.08 7.43.26 4.03-.92q-2.06-.72-6.03.42" vector-effect="non-scaling-stroke"/><path stroke="#526674" d="M147.39 229.69q-5.62 7.19-10.88 17.04-.52.97.7.77" vector-effect="non-scaling-stroke"/><path stroke="#1b2831" d="M132.46 293.25q.31 1.66 1.79 1 3.88-1.72 15.25-7.46" vector-effect="non-scaling-stroke"/><path stroke="#445664" d="M149.5 286.79q.2 2.03 1.43 3.58a.85.64-22.1 0 0 .79.21q.89-.2 1.53.63" vector-effect="non-scaling-stroke"/><path stroke="#959fa7" d="M153.25 291.21q-12.45 6.92-26 11.33" vector-effect="non-scaling-stroke"/><path stroke="#697a86" d="M127.25 302.54c-4.53.65-10.23 2.34-14.39.33q-3.1-1.49-2.46-4.88 1.59-8.29 5.06-15.99" vector-effect="non-scaling-stroke"/><path stroke="#dae3e9" d="M108.5 302.21q-1.47.29-1.29 1.79a.7.42 80.9 0 1-.28.7q-2.12.56-3.47 2.24a1.59.45-12.6 0 1-.9.49q-2.06.69-3.65 2.05-1.95 1.65-3.33 2.36-4.4 2.28-7.73 5.97-5.51 6.09-13.33 8.94" vector-effect="non-scaling-stroke"/><path stroke="#7c909d" d="M228 251.29q-3.84-1.41-7.75.28-6.44 2.78-13.5 3.55a.59.48-5.3 0 1-.64-.43l-.11-1.48" vector-effect="non-scaling-stroke"/><path stroke="#cad3d9" d="M206 253.21c.68-.65 5.83-5.27 4-6" vector-effect="non-scaling-stroke"/><path stroke="#92a0aa" d="M175 183.29q-.35 2.23-3 1.5" vector-effect="non-scaling-stroke"/><path stroke="#798994" d="m172 184.79-25-.33" vector-effect="non-scaling-stroke"/><path stroke="#4c5e6d" d="M219.88 193.64q-.76.57-.9 1.13a.96.61 30.8 0 0 .4.8c3.7 2.9 8.42 8.21 8.65 12.89a.47.34-2.8 0 0 .48.31l.7-.02" vector-effect="non-scaling-stroke"/><path stroke="#92a0aa" d="M229.21 208.75c1.15 9.47-3.33 18.74-8.96 26.04" vector-effect="non-scaling-stroke"/><path stroke="#798a96" d="m220.25 234.79-1 .92" vector-effect="non-scaling-stroke"/><path stroke="#445664" d="M219.25 235.71c3.57-6.31 8.34-14.12 6.62-20.99a1.47.37 80 0 0-.42-.94q-2.07-1.65-2.6-4.31a1.24.67 15.4 0 0-.72-.69c-1.12-.49-1.06-1.39-1.6-2.03-1.71-2.04-3.35-3.25-4.78-5.71-.94-1.62-3.03-2.82-4.12-3.73q-3.54-2.96-7.23-5.77-.38-.28-.6-.75-.85-1.77-1.86-2-14.79-3.28-29.94-4" vector-effect="non-scaling-stroke"/><path stroke="#b2bcc3" d="M206 253.21q-18.69 18.78-41 33.08" vector-effect="non-scaling-stroke"/><path stroke="#d3dadf" d="M165 286.29c-11.29 7.18-23.81 14.09-36.92 17.1a.76.58-17.3 0 1-.79-.29q-.13-.27-.04-.56" vector-effect="non-scaling-stroke"/><path stroke="#343f47" d="M206.5 239.71q-23.96 29.02-57 47.08" vector-effect="non-scaling-stroke"/><path stroke="#aeb6bd" d="M207.05 250.51q-23.9 24.29-53.8 40.7" vector-effect="non-scaling-stroke"/><path stroke="#b7c0c5" d="m152.25 407.63 35.75.04a.9.74-83.1 0 1 .69 1.07l-3.14 15.02a.67.5-82.7 0 0 .45.8l13-.21a2.22 1.66-82.1 0 0 1.71-1.73q3.99-17.6 6.78-32.97c3.16-17.4-8.06-22.44-22.71-23.6-17.89-1.42-38.03 1.46-43.27 22.17q-4.34 17.13-7.56 34.54a1.32 1.13-83.4 0 0 1.04 1.55l12.76.26a.72.7-83.6 0 0 .7-.58l3.2-15.81a.68.58-83.1 0 1 .6-.55" vector-effect="non-scaling-stroke"/><path stroke="#a2aab4" d="m369.72 408.24-3.26 15.75a.53.49 4.3 0 0 .54.58l12.5-.28q1.72-.04 2.14-1.9 3.39-14.93 6.35-29.77c4.95-24.82-13.82-27.73-32.59-26.63-20.87 1.23-30.42 7.96-34.85 28.82q-2.92 13.72-5.83 27.65a1.55 1.38-82.8 0 0 1.28 1.86l12.75.25a.64.49-82 0 0 .52-.51l3.25-15.8a.84.71 5 0 1 .8-.57l35.93.03a.47.43 5.4 0 1 .47.52" vector-effect="non-scaling-stroke"/><path stroke="#c3ccd0" d="M61.38 401.46c-1.71 15.06 10.59 22.46 23.88 22.8q18.21.47 36.5.16a1.31 1.06 3.2 0 0 1.24-.89l.85-4.83q.55-3.15-3.34-3.17-14.72-.04-28.95-.04c-23.45.01-13.32-39.6 6.19-39.72q15.38-.09 30.76-.28 3.16-.04 3.72-2.11l1.64-6.11a.62.4 4.4 0 0-.65-.5q-16.77-.03-33.42.22-34.55.53-38.42 34.47" vector-effect="non-scaling-stroke"/><path stroke="#aeb6bd" d="M257.31 375.81q13.8 0 27.62-.21c4.38-.06 4.66-5.1 4.97-8.34a.47.41-86.8 0 0-.4-.51l-68.69.01q-2.78 0-3.3 2.28l-1.37 5.94a.6.48 4.9 0 0 .61.58l23.5.04a.54.53-84.2 0 1 .52.65l-10.12 47.58a.52.43-81.2 0 0 .37.62c4.7.22 15.11 1.85 16.44-4.51q4.59-21.82 9.25-43.63a.62.61-84.2 0 1 .6-.5" vector-effect="non-scaling-stroke"/><path stroke="#a8b0b8" d="M309.86 368.19a.9.9 0 0 0-.85-1.08l-12.88-.44a.9.9 0 0 0-.91.71l-1.57 7.27a.9.9 0 0 0 .88 1.09l13.06.02a.9.9 0 0 0 .89-.72l1.38-6.85M292.86 380.07a.35.35 0 0 0-.35.28l-9.27 43.73a.35.35 0 0 0 .34.42h14.17a.35.35 0 0 0 .34-.28l9.21-43.6a.35.35 0 0 0-.34-.42l-14.1-.13" vector-effect="non-scaling-stroke"/><path stroke="#b7c0c5" d="M191.35 395.8c4.1-14.06 1.13-20.2-14.24-20.07-16.38.14-20.73 7.65-23.12 22.41a.58.52-85.3 0 0 .51.67l33.5-.21q2.54-.01 3.35-2.8" vector-effect="non-scaling-stroke"/><path stroke="#a2aab4" d="M373.87 385.27c.13-11.59-17.48-10.19-24.26-8.47-11.36 2.89-12.92 11.3-14.64 21.35a.51.38 3.6 0 0 .53.44l33.25-.13q2.51-.01 3.27-2.25 1.8-5.33 1.85-10.94" vector-effect="non-scaling-stroke"/></g><path fill="#fff" d="M0 0h474v454H0V0Zm210.21 133.75c-4.48 2.98-23.33 16.73-18.23 20.9 9.12 7.44 61.02-27.93 69.78-34.63 18.79-14.38 65.91-57.33 37.99-83.81-16.03-13.14-43.36-15.02-63.07-14.28q-22.7.86-44.65 6.71c-2.35.62-14.74 4.32-11.16 8.52 2.46 2.89 9.73 3.92 13.14 3.87 21.83-.28 41.77.17 62.42 5.27 5 1.23 12.53 3.74 15.79 7.8 16.31 20.3-48.64 69.82-62.01 79.65Zm109.25 53.5c-6.01-7.22-21.42-26.93-8.5-35.09l4.64-2.93q14.01-2.23 21.4-2.71 7-.46 42.18-1.48 6.03-.18 11.55-2.51 2.11-.9 1.5-3.1c-1.15-4.15-7.67-6.62-11.45-7.54q-28.88-7.04-58.58-5.93c-28.02 1.05-68.76 15.07-47.12 52.48q5.95 10.28 15.01 21.24 16.23 19.62 32.44 39.25c6.57 7.96 21.82 28.26 2.92 33.68q-10.16 2.91-20.7 3.88c-17.75 1.63-45.37 1.38-73.97 4.02q-2.51.23-4.25 2.05c-5.32 5.57 6 9.23 10.36 9.98q30.84 5.29 62.1 5.9 21.15.41 39.45-3.36c17.71-3.65 35.66-14.82 33.19-34.7-1.59-12.82-11.8-25.49-20.62-36.15q-15.49-18.73-31.55-36.98Zm-197.96 2.21c25.81.65 53.87-2.19 78.82 5.93 21.77 7.09 18.15 25.52 7.72 40.36-16.82 24.32-47.76 47.27-75.58 57.5q-5.42 1.72-11.23 1.36a1.15 1.06-15.7 0 1-.82-.42q-2-2.56-.71-6.01 1.01-2.72 3.7-12.37 6.85-12.43 13.56-24.7 7.08-12.93 14.44-25.69c2.3-4 10.13-17.74 2.37-18.29-8.47-.61-17.83 14.79-22.24 20.77-21.29 28.89-41.1 59.95-56.24 92.54-1.11 2.38-1.87 5.3-2.23 7.71q-.54 3.66 3.17 3.82c13.1.56 29.39-4.95 41.64-9.49 49.99-18.55 106.21-49.96 129.92-100.47 19.96-42.56-33.84-52.29-61.3-53.16q-29.46-.93-58.1 5.85-8.05 1.9-15.4 5.53c-4.76 2.35-3.39 5.94.71 7.48q3.81 1.44 7.8 1.75Zm30.75 218.17 35.75.04a.9.74-83.1 0 1 .69 1.07l-3.14 15.02a.67.5-82.7 0 0 .45.8l13-.21a2.22 1.66-82.1 0 0 1.71-1.73q3.99-17.6 6.78-32.97c3.16-17.4-8.06-22.44-22.71-23.6-17.89-1.42-38.03 1.46-43.27 22.17q-4.34 17.13-7.56 34.54a1.32 1.13-83.4 0 0 1.04 1.55l12.76.26a.72.7-83.6 0 0 .7-.58l3.2-15.81a.68.58-83.1 0 1 .6-.55Zm217.47.61-3.26 15.75a.53.49 4.3 0 0 .54.58l12.5-.28q1.72-.04 2.14-1.9 3.39-14.93 6.35-29.77c4.95-24.82-13.82-27.73-32.59-26.63-20.87 1.23-30.42 7.96-34.85 28.82q-2.92 13.72-5.83 27.65a1.55 1.38-82.8 0 0 1.28 1.86l12.75.25a.64.49-82 0 0 .52-.51l3.25-15.8a.84.71 5 0 1 .8-.57l35.93.03a.47.43 5.4 0 1 .47.52Zm-308.34-6.78c-1.71 15.06 10.59 22.46 23.88 22.8q18.21.47 36.5.16a1.31 1.06 3.2 0 0 1.24-.89l.85-4.83q.55-3.15-3.34-3.17-14.72-.04-28.95-.04c-23.45.01-13.32-39.6 6.19-39.72q15.38-.09 30.76-.28 3.16-.04 3.72-2.11l1.64-6.11a.62.4 4.4 0 0-.65-.5q-16.77-.03-33.42.22-34.55.53-38.42 34.47Zm195.93-25.65q13.8 0 27.62-.21c4.38-.06 4.66-5.1 4.97-8.34a.47.41-86.8 0 0-.4-.51l-68.69.01q-2.78 0-3.3 2.28l-1.37 5.94a.6.48 4.9 0 0 .61.58l23.5.04a.54.53-84.2 0 1 .52.65l-10.12 47.58a.52.43-81.2 0 0 .37.62c4.7.22 15.11 1.85 16.44-4.51q4.59-21.82 9.25-43.63a.62.61-84.2 0 1 .6-.5Zm52.55-7.62a.9.9 0 0 0-.85-1.08l-12.88-.44a.9.9 0 0 0-.91.71l-1.57 7.27a.9.9 0 0 0 .88 1.09l13.06.02a.9.9 0 0 0 .89-.72l1.38-6.85Zm-17 11.88a.35.35 0 0 0-.35.28l-9.27 43.73a.35.35 0 0 0 .34.42h14.17a.35.35 0 0 0 .34-.28l9.21-43.6a.35.35 0 0 0-.34-.42l-14.1-.13Z"/><path fill="#243949" d="M299.75 36.21c-2.41.05 3.39 6.63 3.9 7.37.52.75.7 1.84 1.63 2.47a.89.39 31.4 0 1 .49.71l-.18.56a1.49.86 53.8 0 0 .1.91c3.09 7.52-.24 18.6-3.77 25.05q-.88-9.71-1.8-15.35-1.98-12.2-7.91-23.8c-2.94-5.75-19.3-8.26-25.14-9.13l-8.32-.96c-23.99-2-53.15-.14-74.71 8.8q-1.59.66-2.46 2.14c-1.41 2.41 7.54 2.34 8.83 2.25q16.9-1.15 33.84-1.44l3.3 4.23a1.18.77 65 0 0 .74.46q17.77 1.06 34.64 6.74c7.86 2.65 13.55 7.06 13.26 16.02C269.01 88.5 242 110.6 220.96 127c-2.04 1.52-8.48 7.3-10.75 6.75 13.37-9.83 78.32-59.35 62.01-79.65-3.26-4.06-10.79-6.57-15.79-7.8-20.65-5.1-40.59-5.55-62.42-5.27-3.41.05-10.68-.98-13.14-3.87-3.58-4.2 8.81-7.9 11.16-8.52q21.95-5.85 44.65-6.71c19.71-.74 47.04 1.14 63.07 14.28Z"/><path fill="#fff" d="M258.75 24.04c-.26 1.36-.01 2.13 1.18 2.92 2.43 1.63 11.78 9.07 10.06 12.4a.65.61 20 0 1-.73.31q-12.18-3.15-24.76-3.63-10.12-.78-20.25-.25-16.94.29-33.84 1.44c-1.29.09-10.24.16-8.83-2.25q.87-1.48 2.46-2.14c21.56-8.94 50.72-10.8 74.71-8.8Z"/><path fill="#b9c9d0" d="m258.75 24.04 8.32.96q1.73 3.67 3.47 5.72 3.66 4.31 6.05 8.08c1.56 2.46 4.12 4.18 5.37 7.2q-1.9-2.13-4.21-.79c-10.28-5.56-20.47-6.45-32.77-7.87a.32.28-71.1 0 1-.19-.46q.3-.56-.29-.84 12.58.48 24.76 3.63a.65.61 20 0 0 .73-.31c1.72-3.33-7.63-10.77-10.06-12.4-1.19-.79-1.44-1.56-1.18-2.92Z"/><path fill="#798d9a" d="M267.07 25c5.84.87 22.2 3.38 25.14 9.13q5.93 11.6 7.91 23.8.92 5.64 1.8 15.35-7.29 15.13-19.56 27.06c.14-4.14 2.2-6.42 2.83-10.14.5-2.96 1.82-6.02 2.21-8.57.81-5.32 1.94-10.88.14-16.13 2.89-7.71 2.47-15.54-5.58-19.5-1.25-3.02-3.81-4.74-5.37-7.2q-2.39-3.77-6.05-8.08-1.74-2.05-3.47-5.72Z"/><path fill="#3a4f60" d="M244.5 36.04q.59.28.29.84a.32.28-71.1 0 0 .19.46c12.3 1.42 22.49 2.31 32.77 7.87 12.95 8.19 10.04 19.76 2.02 30.1q2.27-7.75-3.58-12.07c.29-8.96-5.4-13.37-13.26-16.02q-16.87-5.68-34.64-6.74a1.18.77 65 0 1-.74-.46l-3.3-4.23q10.13-.53 20.25.25Z"/><path fill="#1a2d3b" d="M299.75 36.21c27.92 26.48-19.2 69.43-37.99 83.81-8.76 6.7-60.66 42.07-69.78 34.63-5.1-4.17 13.75-17.92 18.23-20.9 2.27.55 8.71-5.23 10.75-6.75q.21 1.81 1.73 1.96a1.29.99-56.7 0 0 .87-.3c2.56-2.09 5.9-4.07 7.98-6.52q.83-.98 2-.14-17.48 14.2-38.02 28-.32.22-.42.44-.29.66.46.2l9.69-5.85q1.11.95 1.44 2.51a.65.42 77.5 0 0 .55.54q2.47-.56 4.55.53a1.15.58-33.4 0 0 .89-.1c2.25-1.08 4.65-1.47 6.73-2.53q11.5-5.86 22.34-13.04 22.25-13.67 40.61-32.36 12.27-11.93 19.56-27.06c3.53-6.45 6.86-17.53 3.77-25.05a1.49.86 53.8 0 1-.1-.91l.18-.56a.89.39 31.4 0 0-.49-.71c-.93-.63-1.11-1.72-1.63-2.47-.51-.74-6.31-7.32-3.9-7.37Z"/><path fill="#dee6ec" d="M281.96 46c8.05 3.96 8.47 11.79 5.58 19.5l-3.49 6.24-1.34 2.76-4.04 4.9q-2.11 7.89-5.59 15.24-.76 1.59-2.69 3.83c-2.08 2.4-3.09 5.57-5.38 7.61q-7.87 6.99-17.44 11.38c-2.52 1.15-4.86 1.29-7.57 1.75 3.01-3.1 5.72-2.09 9.03-3.83 7.21-3.77 14.12-8.31 18.85-14.99q3.67-5.18 5.69-10.31 1.01-2.54-1.57-3.87 4.5-5.25 7.77-10.9c8.02-10.34 10.93-21.91-2.02-30.1q2.31-1.34 4.21.79Z"/><path fill="#647987" d="M276.19 63.24q5.85 4.32 3.58 12.07-3.27 5.65-7.77 10.9-17.58 19.66-38.46 35.79-1.17-.84-2 .14c-2.08 2.45-5.42 4.43-7.98 6.52a1.29.99-56.7 0 1-.87.3q-1.52-.15-1.73-1.96c21.04-16.4 48.05-38.5 55.23-63.76Z"/><path fill="#b2c1ca" d="M287.54 65.5c1.8 5.25.67 10.81-.14 16.13-.39 2.55-1.71 5.61-2.21 8.57-.63 3.72-2.69 6-2.83 10.14Q264 119.03 241.75 132.7q-7.1-1.59-14.44-.22a.91.76-22 0 1-.83-.27l-.98-1.25 13.25-10.75c2.25.09 4.36.26 6.51-.56 6.03-2.3 11.95-6.14 16.75-9.89 4.18-3.27 7.02-7.71 9.97-11.63 3.56-4.75 6.09-11.97 6.69-18.73l4.04-4.9c1.27 9.48-3.78 19.9-9.23 27.36-3.22 4.41-6.24 8.79-10.33 12.23q-.41.34.06.1c3.3-1.7 4.34-4.62 7.31-6.46q1.11-.68 2.66-3.79c2.3-4.63 6.12-8.77 7.71-13.37q3.13-9.1 3.16-18.83l3.49-6.24Z"/><path fill="#b9c9d0" d="M284.05 71.74q-.03 9.73-3.16 18.83c-1.59 4.6-5.41 8.74-7.71 13.37q-1.55 3.11-2.66 3.79c-2.97 1.84-4.01 4.76-7.31 6.46q-.47.24-.06-.1c4.09-3.44 7.11-7.82 10.33-12.23 5.45-7.46 10.5-17.88 9.23-27.36l1.34-2.76Z"/><path fill="#d6dfe5" d="M278.67 79.4c-.6 6.76-3.13 13.98-6.69 18.73-2.95 3.92-5.79 8.36-9.97 11.63-4.8 3.75-10.72 7.59-16.75 9.89-2.15.82-4.26.65-6.51.56l1.25-1c2.71-.46 5.05-.6 7.57-1.75q9.57-4.39 17.44-11.38c2.29-2.04 3.3-5.21 5.38-7.61q1.93-2.24 2.69-3.83 3.48-7.35 5.59-15.24Z"/><path fill="#e9f1f4" d="M272 86.21q2.58 1.33 1.57 3.87-2.02 5.13-5.69 10.31c-4.73 6.68-11.64 11.22-18.85 14.99-3.31 1.74-6.02.73-9.03 3.83l-1.25 1-13.25 10.75-20.25 13.83-9.69 5.85q-.75.46-.46-.2.1-.22.42-.44 20.54-13.8 38.02-28 20.88-16.13 38.46-35.79Z"/><path fill="#0f1b21" d="M315.6 149.23q12.55-4.93 26.16-3.96 1.01.07 3.74-.48 15.24-.77 30.5-.85c3.22-.02 11.21-.2 14.25-3.15 3.36-6.41-19.18-9.72-24.75-10.58l-19.5-2.42q-20.66-2.38-40.84 1.49c-16.95 3.24-39.78 13.92-34.1 35.64q1.26 4.82 7.25 16c13.13 21.22 29.76 38.65 46.94 59.62 3.12 4.67 8.37 10.15 9.82 15.18 5.72 19.79-17.06 20.63-29.36 21.92q-14.06 1.48-28.21 1.9l-28.5.75q-8.84.57-17.61 1.43c-4.47.44-6.85 4.57-1.98 7.21q2.67 1.45 5.84 2.05 18.01 3.41 34.75 4.73l19.25 1.25c15.78.18 29.22.6 46.49-2.49 17.91-3.19 39.55-14.64 34.46-36.76-2.56-11.16-10.68-21.94-18.2-30.75l-8.71-10.21q-10.59-12.53-21.48-24.81-1.18-1.34-3.31-4.4l.96-.29q16.06 18.25 31.55 36.98c8.82 10.66 19.03 23.33 20.62 36.15 2.47 19.88-15.48 31.05-33.19 34.7q-18.3 3.77-39.45 3.36-31.26-.61-62.1-5.9c-4.36-.75-15.68-4.41-10.36-9.98q1.74-1.82 4.25-2.05c28.6-2.64 56.22-2.39 73.97-4.02q10.54-.97 20.7-3.88c18.9-5.42 3.65-25.72-2.92-33.68q-16.21-19.63-32.44-39.25-9.06-10.96-15.01-21.24c-21.64-37.41 19.1-51.43 47.12-52.48q29.7-1.11 58.58 5.93c3.78.92 10.3 3.39 11.45 7.54q.61 2.2-1.5 3.1-5.52 2.33-11.55 2.51-35.18 1.02-42.18 1.48-7.39.48-21.4 2.71Z"/><path fill="#fff" d="M346 127.79q-.58 4.09.3 7.37.79 2.97-1.21 4.74a1.51 1.23 18.8 0 1-.88.33c-10.85.4-21.18-.16-32.09 2.88-15.16 2-20.24 15.74-11.54 28.01.83 1.17.98 2.83 2.43 3.81q.79.54.34-.26l-.8-1.44a1.05.04 60.5 0 1-.45-.87q.01-.79.9-.9l3.79 5.54c.61 4.27 5.58 10.24 8.53 12.42 4.76 3.52 3.33 8.63.43 12.79q-1.94 2.79-6.06 12.92l-13.15-13.63-9.51-10.43-7.21-9.93a.92.64 60.7 0 0-.82-.4l-.69.18q-5.99-11.18-7.25-16c-5.68-21.72 17.15-32.4 34.1-35.64q20.18-3.87 40.84-1.49Z"/><path fill="#8c9faa" d="m346 127.79 19.5 2.42q-.8 5.74 2.4 10.44a1.11 1.09-13.4 0 0 .78.47q10.8 1.2 21.57-.33c-3.04 2.95-11.03 3.13-14.25 3.15q-15.26.08-30.5.85c-7.02-3.76-19.38-1.67-28.75-.08-1.2-3.04-5.38.78-4.63-1.6 10.91-3.04 21.24-2.48 32.09-2.88a1.51 1.23 18.8 0 0 .88-.33q2-1.77 1.21-4.74-.88-3.28-.3-7.37Z"/><path fill="#526779" d="M365.5 130.21c5.57.86 28.11 4.17 24.75 10.58q-10.77 1.53-21.57.33a1.11 1.09-13.4 0 1-.78-.47q-3.2-4.7-2.4-10.44Z"/><path fill="#5d727e" d="m225.5 130.96.98 1.25a.91.76-22 0 0 .83.27q7.34-1.37 14.44.22-10.84 7.18-22.34 13.04c-2.08 1.06-4.48 1.45-6.73 2.53a1.15.58-33.4 0 1-.89.1q-2.08-1.09-4.55-.53a.65.42 77.5 0 1-.55-.54q-.33-1.56-1.44-2.51l20.25-13.83Z"/><path fill="#2b3f4e" d="M345.5 144.79q-2.73.55-3.74.48-13.61-.97-26.16 3.96l-4.64 2.93c-12.92 8.16 2.49 27.87 8.5 35.09l-.96.29q-5.01-5.41-8.94-11.67a.95.32 56.5 0 0-.84-.66l-.76.76a.98.34 38.8 0 0 .57.91q1.67 1.33 1.28 3.45l-3.02-3.33-3.79-5.54c-9.47-14.89-1.67-24.19 13.75-26.75 9.37-1.59 21.73-3.68 28.75.08Z"/><path fill="#c7d2d9" d="M312.12 143.11c-.75 2.38 3.43-1.44 4.63 1.6-15.42 2.56-23.22 11.86-13.75 26.75q-.89.11-.9.9a1.05.04 60.5 0 0 .45.87l.8 1.44q.45.8-.34.26c-1.45-.98-1.6-2.64-2.43-3.81-8.7-12.27-3.62-26.01 11.54-28.01Z"/><path fill="#0a1014" d="M123.4 275.81q5.69-14.75 13.81-28.31 5.59-8.58 10.18-17.81 1.54-1.46 1.57-3.69c1.66-2.69 7.46-12.99 6.8-15.78-1.79-7.64-13.33 4.95-14.88 6.89l-10.92 14.64-8.75 12.25-17.65 26.94Q89.51 293.46 78 317.21l-1.75 4-1.73 5.54c-.59 2.44.18 4.05 2.9 3.98q10.65-.29 20.83-3.52 44.09-12.73 83.04-36.96 26.4-15.84 46.71-38.96 9.44-11.05 15.96-24.04 4.14-8.06 6.23-15.06 3.08-10.33-2.59-20.61-11.63-12.03-27.32-16.53-6.64-1.9-19.65-3.62c-26.66-3.51-54.44-.42-80.22 6.93q-4.95 1.41-8.78 4.24-2.06 1.51.16 2.3l3.21 1.14 3.75 1.42 2 .5q1.48.14.75 1.5-3.99-.31-7.8-1.75c-4.1-1.54-5.47-5.13-.71-7.48q7.35-3.63 15.4-5.53 28.64-6.78 58.1-5.85c27.46.87 81.26 10.6 61.3 53.16-23.71 50.51-79.93 81.92-129.92 100.47-12.25 4.54-28.54 10.05-41.64 9.49q-3.71-.16-3.17-3.82c.36-2.41 1.12-5.33 2.23-7.71 15.14-32.59 34.95-63.65 56.24-92.54 4.41-5.98 13.77-21.38 22.24-20.77 7.76.55-.07 14.29-2.37 18.29q-7.36 12.76-14.44 25.69-6.71 12.27-13.56 24.7Z"/><path fill="#fff" d="M247.6 191.58q-7.25 5.27-10.44 9.6-3.56 4.82-7.84 6.92-2.14-8.87-9.44-14.46-21.08-10.68-44.88-10.35-10.5-1.35-21.04-.41a.67.63-68.6 0 0-.4.19l-.25.25a1.6.99-61.6 0 1-.8.46l-5.51.68-32 1.58-3.21-1.14q-2.22-.79-.16-2.3 3.83-2.83 8.78-4.24c25.78-7.35 53.56-10.44 80.22-6.93q13.01 1.72 19.65 3.62 15.69 4.5 27.32 16.53Z"/><path fill="#a6b5be" d="M318.5 187.54q2.13 3.06 3.31 4.4 10.89 12.28 21.48 24.81-3.32 7.56-8.28 14.15c-1.26 1.67-1.72 4.09-3.55 5.82a1.15 1.12-43.1 0 1-1.61-.04l-8.9-9.53q4.63-4.4 7.85-11.38 2.32-5.03 3.17-8.79a1.07 1.04 32.5 0 0-.21-.89q-5.75-7.25-12.19-13.9c-.77-.79-1.09-1.91-1.96-2.74q-4.42-4.21-7.8-9.12.39-2.12-1.28-3.45a.98.34 38.8 0 1-.57-.91l.76-.76a.95.32 56.5 0 1 .84.66q3.93 6.26 8.94 11.67Z"/><path fill="#d6dfe5" d="m306.79 177 3.02 3.33q3.38 4.91 7.8 9.12c.87.83 1.19 1.95 1.96 2.74q6.44 6.65 12.19 13.9a1.07 1.04 32.5 0 1 .21.89q-.85 3.76-3.17 8.79-3.22 6.98-7.85 11.38l-11.26-12.02q4.12-10.13 6.06-12.92c2.9-4.16 4.33-9.27-.43-12.79-2.95-2.18-7.92-8.15-8.53-12.42Z"/><path fill="#8699a0" d="m278.31 180.92.69-.18a.92.64 60.7 0 1 .82.4l7.21 9.93q2.93 5.72 7.35 10.42c.62.66 1.65.9 2.16.01l13.15 13.63 11.26 12.02 8.9 9.53a1.15 1.12-43.1 0 0 1.61.04c1.83-1.73 2.29-4.15 3.55-5.82q4.96-6.59 8.28-14.15l8.71 10.21q-2.57 2.86-4.55 6.12c-3 4.95-6.16 9.77-9.24 14.67q-1.42-2.6-4.26-3.06l-5.32-6.03q-1-1.13-1.39.3-.43 1.55-1.99 1.58c-17.18-20.97-33.81-38.4-46.94-59.62Z"/><path fill="#c7d2d9" d="M175 183.29q-.35 2.23-3 1.5l-25-.33 5.51-.68a1.6.99-61.6 0 0 .8-.46l.25-.25a.67.63-68.6 0 1 .4-.19q10.54-.94 21.04.41Z"/><path fill="#5d6d7a" d="M175 183.29q23.8-.33 44.88 10.35-.76.57-.9 1.13a.96.61 30.8 0 0 .4.8c3.7 2.9 8.42 8.21 8.65 12.89a.47.34-2.8 0 0 .48.31l.7-.02c1.15 9.47-3.33 18.74-8.96 26.04l-1 .92c3.57-6.31 8.34-14.12 6.62-20.99a1.47.37 80 0 0-.42-.94q-2.07-1.65-2.6-4.31a1.24.67 15.4 0 0-.72-.69c-1.12-.49-1.06-1.39-1.6-2.03-1.71-2.04-3.35-3.25-4.78-5.71-.94-1.62-3.03-2.82-4.12-3.73q-3.54-2.96-7.23-5.77-.38-.28-.6-.75-.85-1.77-1.86-2-14.79-3.28-29.94-4 2.65.73 3-1.5Z"/><path fill="#2b3f4e" d="m147 184.46 25 .33q15.15.72 29.94 4 1.01.23 1.86 2 .22.47.6.75 3.69 2.81 7.23 5.77c1.09.91 3.18 2.11 4.12 3.73 1.43 2.46 3.07 3.67 4.78 5.71.54.64.48 1.54 1.6 2.03a1.24.67 15.4 0 1 .72.69q.53 2.66 2.6 4.31a1.47.37 80 0 1 .42.94c1.72 6.87-3.05 14.68-6.62 20.99l-9.25 11.5-2.95 3.3q1.49-3.68 3.76-6.55a.75.71-42.4 0 0 .06-.83q-1.65-2.6-4.37-3.42c.15-.21 4.13-4.75 1.54-3.96 10.43-14.84 14.05-33.27-7.72-40.36-24.95-8.12-53.01-5.28-78.82-5.93q.73-1.36-.75-1.5c.3-.08 7.43.26 4.03-.92q-2.06-.72-6.03.42l-3.75-1.42 32-1.58Z"/><path fill="#455569" d="m120.75 187.96-2-.5q3.97-1.14 6.03-.42c3.4 1.18-3.73.84-4.03.92Z"/><path fill="#6f808b" d="m287.03 191.07 9.51 10.43c-.51.89-1.54.65-2.16-.01q-4.42-4.7-7.35-10.42Z"/><path fill="#c7d2d9" d="M247.6 191.58q5.67 10.28 2.59 20.61-2.09 7-6.23 15.06c-1.29-.36-2.62-.54-3.86.21-4.03 2.41-8.22 5.5-12.47 7.42-1.51.68-8.09 4.74-7.38-.09 5.63-7.3 10.11-16.57 8.96-26.04l.11-.65q4.28-2.1 7.84-6.92 3.19-4.33 10.44-9.6Z"/><path fill="#3a4f60" d="M219.88 193.64q7.3 5.59 9.44 14.46l-.11.65-.7.02a.47.34-2.8 0 1-.48-.31c-.23-4.68-4.95-9.99-8.65-12.89a.96.61 30.8 0 1-.4-.8q.14-.56.9-1.13Z"/><path fill="#e9f1f4" d="M148.96 226q-3.25 3.72-6.99 9.71c-9.49 15.2-18.91 30-26.51 46.29-3.23 1.69-.27-3.66 0-4.75q6.77-13.89 15.04-26.96l8-12.75 10.05-14.37q1.8-2.57-1.33-2.76-2.82-.16-6.34-3.3c1.55-1.94 13.09-14.53 14.88-6.89.66 2.79-5.14 13.09-6.8 15.78Z"/><path fill="#b9c9d0" d="M140.88 217.11q3.52 3.14 6.34 3.3 3.13.19 1.33 2.76l-10.05 14.37q-4.98-1.88-8.54-5.79l10.92-14.64Z"/><path fill="#2b3f4e" d="M148.96 226q-.03 2.23-1.57 3.69-5.62 7.19-10.88 17.04-.52.97.7.77-8.12 13.56-13.81 28.31-2.69 9.65-3.7 12.37-1.29 3.45.71 6.01a1.15 1.06-15.7 0 0 .82.42q5.81.36 11.23-1.36.31 1.66 1.79 1 3.88-1.72 15.25-7.46.2 2.03 1.43 3.58a.85.64-22.1 0 0 .79.21q.89-.2 1.53.63-12.45 6.92-26 11.33c-4.53.65-10.23 2.34-14.39.33q-3.1-1.49-2.46-4.88 1.59-8.29 5.06-15.99c7.6-16.29 17.02-31.09 26.51-46.29q3.74-5.99 6.99-9.71Z"/><path fill="#94a7b2" d="M243.96 227.25q-6.52 12.99-15.96 24.04-3.84-1.41-7.75.28-6.44 2.78-13.5 3.55a.59.48-5.3 0 1-.64-.43l-.11-1.48c.68-.65 5.83-5.27 4-6l9.25-11.5 1-.92c-.71 4.83 5.87.77 7.38.09 4.25-1.92 8.44-5.01 12.47-7.42 1.24-.75 2.57-.57 3.86-.21Z"/><path fill="#526779" d="M352 226.96c7.52 8.81 15.64 19.59 18.2 30.75 5.09 22.12-16.55 33.57-34.46 36.76-17.27 3.09-30.71 2.67-46.49 2.49q2.51-2.2 5.15-4.23c3.67-2.81 10.24-2.68 10.6-8.94q13.31-.61 26.12-3.97c20.21-5.32 17.98-18.68 7.09-32.07 3.08-4.9 6.24-9.72 9.24-14.67q1.98-3.26 4.55-6.12Z"/><path fill="#798d9a" d="M147.39 229.69q-4.59 9.23-10.18 17.81-1.22.2-.7-.77 5.26-9.85 10.88-17.04Z"/><path fill="#8699a0" d="M129.96 231.75q3.56 3.91 8.54 5.79l-8 12.75c-2.33-.41-9.31-4.02-9.29-6.29l8.75-12.25Z"/><path fill="#0a1014" d="M208.04 235.75c2.59-.79-1.39 3.75-1.54 3.96q-23.96 29.02-57 47.08-11.37 5.74-15.25 7.46-1.48.66-1.79-1c27.82-10.23 58.76-33.18 75.58-57.5Z"/><path fill="#3a4f60" d="M333.95 244.69c5.39 6.93 14.45 20.2 7.19 27.92-5.53 5.89-20.19 7.84-28.64 8.58q-24.99 2.2-48.5 1.27.43-1.66 2.09-1.25a.76.51-57.3 0 0 .63-.27q.22-.26.59-.05c1.05-.06 11.19.09 10.19-1.35q14.15-.42 28.21-1.9c12.3-1.29 35.08-2.13 29.36-21.92-1.45-5.03-6.7-10.51-9.82-15.18q1.56-.03 1.99-1.58.39-1.43 1.39-.3l5.32 6.03Z"/><path fill="#5d6d7a" d="M206.5 239.71q2.72.82 4.37 3.42a.75.71-42.4 0 1-.06.83q-2.27 2.87-3.76 6.55-23.9 24.29-53.8 40.7-.64-.83-1.53-.63a.85.64-22.1 0 1-.79-.21q-1.23-1.55-1.43-3.58 33.04-18.06 57-47.08Z"/><path fill="#647987" d="M121.21 244c-.02 2.27 6.96 5.88 9.29 6.29q-8.27 13.07-15.04 26.96-2.46.29-3.8-.94-4.31-3.98-8.1-5.37L121.21 244Z"/><path fill="#e9f1f4" d="M338.21 247.75c10.89 13.39 13.12 26.75-7.09 32.07q-12.81 3.36-26.12 3.97l-17.75.5-32.68-.59a.36.32 12.6 0 1-.33-.47q.64-1.27 2.51-.94l7.25.17q23.51.93 48.5-1.27c8.45-.74 23.11-2.69 28.64-8.58 7.26-7.72-1.8-20.99-7.19-27.92q2.84.46 4.26 3.06Z"/><path fill="#fff" d="M210 247.21c1.83.73-3.32 5.35-4 6q-18.69 18.78-41 33.08c-11.29 7.18-23.81 14.09-36.92 17.1a.76.58-17.3 0 1-.79-.29q-.13-.27-.04-.56 13.55-4.41 26-11.33 29.9-16.41 53.8-40.7l2.95-3.3Z"/><path fill="#647987" d="M228 251.29q-20.31 23.12-46.71 38.96c-.51-4.88-15.74.82-16.29-3.96q22.31-14.3 41-33.08l.11 1.48a.59.48-5.3 0 0 .64.43q7.06-.77 13.5-3.55 3.91-1.69 7.75-.28Z"/><path fill="#a6b5be" d="M115.46 277.25c-.27 1.09-3.23 6.44 0 4.75q-3.47 7.7-5.06 15.99-.64 3.39 2.46 4.88c4.16 2.01 9.86.32 14.39-.33q-.09.29.04.56a.76.58-17.3 0 0 .79.29c13.11-3.01 25.63-9.92 36.92-17.1.55 4.78 15.78-.92 16.29 3.96q-38.95 24.23-83.04 36.96c2.89-6.4 9.17-10.77 15.34-13.7a.58.22-20.8 0 0 .36-.32l.05-.44a1.03.72-18.5 0 1 .49-.66c1.52-.93 5.95-4.16 4.79-5.94a1.02.8-13.2 0 0-.82-.38c-4.41.04-7.52.18-9.96-3.56l-.79-2.71.45-3.28a1.09.76-70.7 0 0-.24-.87q-.66-.62-1.03.55-.63 1.96-2.23 2.2a1.49 1.07 9.4 0 0-.83.41c-1.52 1.71-2.66 3.07-4.7 4.33q-6.42 3.97-11.77 9.3-.31.31-.84.51c-3.33 1.28-3.91 4.01-8.52 4.56q11.51-23.75 25.56-46.27 3.79 1.39 8.1 5.37 1.34 1.23 3.8.94Z"/><path fill="#8699a0" d="M277.5 279.54c1 1.44-9.14 1.29-10.19 1.35q-.37-.21-.59.05a.76.51-57.3 0 1-.63.27q-1.66-.41-2.09 1.25l-7.25-.17-5.68-.28a.71.56 84 0 1-.55-.57q-.2-1.09-1.52-1.15l28.5-.75Z"/><path fill="#8c9faa" d="M249 280.29q1.32.06 1.52 1.15a.71.56 84 0 0 .55.57l5.68.28q-1.87-.33-2.51.94a.36.32 12.6 0 0 .33.47l32.68.59q-1.81 3.26-5.5 4.71c-1.6.62-10.64 3.59-11.75 6.71q-16.74-1.32-34.75-4.73-3.17-.6-5.84-2.05c-4.87-2.64-2.49-6.77 1.98-7.21q8.77-.86 17.61-1.43Z"/><path fill="#647987" d="M305 283.79c-.36 6.26-6.93 6.13-10.6 8.94q-2.64 2.03-5.15 4.23L270 295.71c1.11-3.12 10.15-6.09 11.75-6.71q3.69-1.45 5.5-4.71l17.75-.5Z"/><path fill="#b9c9d0" d="M107.71 299.5q-1.04-.06-1.52.82a1.26.93-76.8 0 1-.67.57q-1.2.31-1.53.6c-4.66 4.23-9.97 7.4-14.54 11.62-3.43 3.17-7.64 4.51-10.22 7.64q-.76.91-2.98.46l1.75-4c4.61-.55 5.19-3.28 8.52-4.56q.53-.2.84-.51 5.35-5.33 11.77-9.3c2.04-1.26 3.18-2.62 4.7-4.33a1.49 1.07 9.4 0 1 .83-.41q1.6-.24 2.23-2.2.37-1.17 1.03-.55a1.09.76-70.7 0 1 .24.87l-.45 3.28Z"/><path fill="#d6dfe5" d="m107.71 299.5.79 2.71q-1.47.29-1.29 1.79a.7.42 80.9 0 1-.28.7q-2.12.56-3.47 2.24a1.59.45-12.6 0 1-.9.49q-2.06.69-3.65 2.05-1.95 1.65-3.33 2.36-4.4 2.28-7.73 5.97-5.51 6.09-13.33 8.94l1.73-5.54q2.22.45 2.98-.46c2.58-3.13 6.79-4.47 10.22-7.64 4.57-4.22 9.88-7.39 14.54-11.62q.33-.29 1.53-.6a1.26.93-76.8 0 0 .67-.57q.48-.88 1.52-.82Z"/><path fill="#dee6ec" d="M108.5 302.21c2.44 3.74 5.55 3.6 9.96 3.56a1.02.8-13.2 0 1 .82.38c1.16 1.78-3.27 5.01-4.79 5.94a1.03.72-18.5 0 0-.49.66l-.05.44a.58.22-20.8 0 1-.36.32c-6.17 2.93-12.45 7.3-15.34 13.7q-10.18 3.23-20.83 3.52c-2.72.07-3.49-1.54-2.9-3.98q7.82-2.85 13.33-8.94 3.33-3.69 7.73-5.97 1.38-.71 3.33-2.36 1.59-1.36 3.65-2.05a1.59.45-12.6 0 0 .9-.49q1.35-1.68 3.47-2.24a.7.42 80.9 0 0 .28-.7q-.18-1.5 1.29-1.79Z"/><path fill="#6f808b" d="m151.65 408.18-3.2 15.81a.72.7-83.6 0 1-.7.58l-12.76-.26a1.32 1.13-83.4 0 1-1.04-1.55q3.22-17.41 7.56-34.54c5.24-20.71 25.38-23.59 43.27-22.17 14.65 1.16 25.87 6.2 22.71 23.6q-2.79 15.37-6.78 32.97a2.22 1.66-82.1 0 1-1.71 1.73l-13 .21a.67.5-82.7 0 1-.45-.8l3.14-15.02a.9.74-83.1 0 0-.69-1.07l-35.75-.04a.68.58-83.1 0 0-.6.55Zm39.7-12.38c4.1-14.06 1.13-20.2-14.24-20.07-16.38.14-20.73 7.65-23.12 22.41a.58.52-85.3 0 0 .51.67l33.5-.21q2.54-.01 3.35-2.8Z"/><path fill="#455569" d="m369.25 407.72-35.93-.03a.84.71 5 0 0-.8.57l-3.25 15.8a.64.49-82 0 1-.52.51l-12.75-.25a1.55 1.38-82.8 0 1-1.28-1.86q2.91-13.93 5.83-27.65c4.43-20.86 13.98-27.59 34.85-28.82 18.77-1.1 37.54 1.81 32.59 26.63q-2.96 14.84-6.35 29.77-.42 1.86-2.14 1.9l-12.5.28a.53.49 4.3 0 1-.54-.58l3.26-15.75a.47.43 5.4 0 0-.47-.52Zm4.62-22.45c.13-11.59-17.48-10.19-24.26-8.47-11.36 2.89-12.92 11.3-14.64 21.35a.51.38 3.6 0 0 .53.44l33.25-.13q2.51-.01 3.27-2.25 1.8-5.33 1.85-10.94Z"/><path fill="#8699a0" d="M85.26 424.26c-13.29-.34-25.59-7.74-23.88-22.8q3.87-33.94 38.42-34.47 16.65-.25 33.42-.22a.62.4 4.4 0 1 .65.5l-1.64 6.11q-.56 2.07-3.72 2.11-15.38.19-30.76.28c-19.51.12-29.64 39.73-6.19 39.72q14.23 0 28.95.04 3.89.02 3.34 3.17l-.85 4.83a1.31 1.06 3.2 0 1-1.24.89q-18.29.31-36.5-.16Z"/><path fill="#5d6d7a" d="M256.71 376.31q-4.66 21.81-9.25 43.63c-1.33 6.36-11.74 4.73-16.44 4.51a.52.43-81.2 0 1-.37-.62l10.12-47.58a.54.53-84.2 0 0-.52-.65l-23.5-.04a.6.48 4.9 0 1-.61-.58l1.37-5.94q.52-2.28 3.3-2.28l68.69-.01a.47.41-86.8 0 1 .4.51c-.31 3.24-.59 8.28-4.97 8.34q-13.82.21-27.62.21a.62.61-84.2 0 0-.6.5Z"/><path fill="#516171" d="m309.86 368.19-1.38 6.85a.9.9 0 0 1-.89.72l-13.06-.02a.9.9 0 0 1-.88-1.09l1.57-7.27a.9.9 0 0 1 .91-.71l12.88.44a.9.9 0 0 1 .85 1.08Z"/><path fill="#fff" d="M177.11 375.73c15.37-.13 18.34 6.01 14.24 20.07q-.81 2.79-3.35 2.8l-33.5.21a.58.52-85.3 0 1-.51-.67c2.39-14.76 6.74-22.27 23.12-22.41ZM349.61 376.8c6.78-1.72 24.39-3.12 24.26 8.47q-.05 5.61-1.85 10.94-.76 2.24-3.27 2.25l-33.25.13a.51.38 3.6 0 1-.53-.44c1.72-10.05 3.28-18.46 14.64-21.35Z"/><path fill="#516171" d="m292.86 380.07 14.1.13a.35.35 0 0 1 .34.42l-9.21 43.6a.35.35 0 0 1-.34.28h-14.17a.35.35 0 0 1-.34-.42l9.27-43.73a.35.35 0 0 1 .35-.28Z"/></svg>