<?xml version="1.0" encoding="utf-8"?>
<!-- Generator: Adobe Illustrator 27.2.0, SVG Export Plug-In . SVG Version: 6.00 Build 0)  -->
<svg version="1.1" id="Layer_1" xmlns="http://www.w3.org/2000/svg" xmlns:xlink="http://www.w3.org/1999/xlink" x="0px" y="0px"
	 viewBox="0 0 512 512" style="enable-background:new 0 0 512 512;" xml:space="preserve">
<style type="text/css">
	.st0{fill-rule:evenodd;clip-rule:evenodd;fill:#D11141;}
	.st1{fill-rule:evenodd;clip-rule:evenodd;fill:#0A0B09;}
	.st2{fill-rule:evenodd;clip-rule:evenodd;}
</style>
<g>
	<path class="st0" d="M372.98,234.62l-5,19.33c-2.75-0.97-5.34-2.38-8.25-2.91c-6.65-1.46-12.75,1.18-16.71,6.31
		c-3.68,4.91-5.99,10.47-6.1,16.89c0,2.1,0.99,3.99,2.64,5.29c6.44,3.35,13.69-0.11,19.63-1.89c-2.75,6.43-8.87,19.41-8.87,19.41
		c-9.84,2.38-24.55,5.25-31.37-4.35c-5.11-8.63-2.14-19.54,0.77-28.17c4.95-14.68,16.82-31.57,34.52-32.32
		C360.61,232.2,367.53,232.39,372.98,234.62 M510.39,236.08c-1.26-2-3.51-3.13-5.66-3.72c-9.63-2.22-18.08,1.26-24.7,8.74
		c-1.15-3.94-2.88-7.55-6.86-8.58c-10.82-2.64-18.43,3.1-20.79,5.35c-1.05,1.01-2.13,1.99-3.28,2.96l2.23-7.48l-18.27,0l-4.97,14.22
		l-7.91,22.56l-7.15,20.18c-0.82,2.38-1.79,5.17-2.56,7.6l19.26,0.01c3.76-10.86,10.51-30.34,12.47-35.48
		c2.75-7.23,7.22-13.07,11.9-11.41c4.79,1.7,0.63,12.08-0.44,15.12l-11.3,31.78l19.46,0.01c3.7-10.72,10.69-30.88,12.69-36.12
		c2.75-7.23,7.22-13.07,11.89-11.41c4.79,1.7,0.64,12.09-0.44,15.12l-11.52,32.42l18.98,0.01c0,0,12.07-33.48,17.68-49.93
		C512.14,244.23,512.69,239.53,510.39,236.08"/>
	<path class="st1" d="M504.39,293.77h1.24c0.24,0,0.48-0.01,0.72-0.02c0.21-0.01,0.42-0.06,0.62-0.13l0.44-0.34
		c0.12-0.2,0.17-0.43,0.16-0.66c0.01-0.2-0.04-0.41-0.14-0.58l-0.37-0.34l-0.53-0.15l-0.57-0.03h-1.55V293.77z M503.39,290.63h2.63
		c0.86,0,1.5,0.16,1.91,0.48c0.41,0.32,0.62,0.84,0.62,1.55c0,0.63-0.19,1.09-0.55,1.39c-0.37,0.29-0.28,0.25-0.79,0.52l1.5,3.11
		h-1.08l-1.4-3.02h-1.85v3.03h-1L503.39,290.63L503.39,290.63z M500.46,294.15c-0.01,1.38,0.54,2.7,1.54,3.66
		c0.48,0.47,1.03,0.84,1.66,1.1c0.64,0.27,1.32,0.4,2.05,0.4c1.39,0.01,2.73-0.53,3.71-1.5c1-0.98,1.55-2.33,1.53-3.72
		c0.01-1.39-0.54-2.72-1.53-3.69c-1-0.96-2.33-1.49-3.71-1.48c-0.73,0-1.41,0.13-2.05,0.4c-0.63,0.27-1.18,0.63-1.66,1.09
		c-0.48,0.47-0.87,1.03-1.13,1.65C500.59,292.72,500.45,293.43,500.46,294.15z M499.46,294.15c0-0.87,0.16-1.68,0.5-2.43
		c0.64-1.47,1.84-2.63,3.32-3.22c0.76-0.31,1.56-0.47,2.41-0.47c0.85,0,1.65,0.16,2.41,0.47c0.77,0.31,1.43,0.73,1.99,1.27
		c0.57,0.54,1.02,1.18,1.35,1.91c0.33,0.74,0.5,1.54,0.5,2.4c0,0.87-0.17,1.68-0.5,2.43c-0.34,0.74-0.78,1.39-1.35,1.94
		c-0.58,0.55-1.25,0.99-1.99,1.28c-0.76,0.31-1.58,0.47-2.4,0.46c-0.86,0-1.66-0.16-2.42-0.46c-0.73-0.3-1.41-0.73-1.98-1.27
		c-0.57-0.55-1.02-1.2-1.34-1.92C499.62,295.79,499.45,294.97,499.46,294.15z"/>
	<path class="st0" d="M392.78,283.39c0,0-12.63,5.85-13.79,0c-1.65-8.37,18.55-13.23,18.55-13.23L392.78,283.39z M424.64,238.2
		c-1.72-3.15-5.09-4.78-8.31-5.49c-8.86-1.68-18.11,0-26.42,1.74c-0.55,0.17-5.31,1.2-6.97,1.8c-2.22,5.21-4.71,10.33-6.76,15.6
		c3.93-1.36,7.92-3.04,12.13-4.18c0.56-0.17,1.16-0.33,1.77-0.49c3.99-0.76,8.75-2.02,12.68-0.6c0.72,0.43,1.33,1.14,1.49,1.9
		c0.22,2.55-1.27,4.84-3.43,6.25c-3.82,2.39-8.2,3.32-12.52,4.35c-1.98,0.42-3.94,0.93-5.87,1.52c-9.19,2.39-18.49,8.7-21.82,18
		c-1.05,2.71-2,6.03-2.11,9.3v0.6c0.06,2.83,0.89,5.6,3.05,7.72c7.2,6.53,18.21,2.5,26.3,0.32l0.12,1.47h19.44
		c1.11-3.48,2.49-6.85,3.65-10.33l11.63-33.17c1.11-3.42,2.82-7.28,2.99-11.09v-0.97C425.64,240.98,425.28,239.53,424.64,238.2
		L424.64,238.2z"/>
	<path class="st2" d="M323.92,253.72c-0.42-0.13-0.83-0.27-1.23-0.44c-4.6-1.97-9.63,0.02-13.04,2.77
		c-3.27,3.17-4.62,4.34-7.59,11.01c-1.43,3.22-10.98,30.85-10.98,30.85c-6.21,0-19.25,0.02-19.25,0.02l8.79-24.72
		c1.81-5.4,3.79-10.85,5.71-16.35l8.12-22.97l18.45-0.02c0,0-1.62,4.16-1.94,6.29l0.01,0.02c4.99-4.45,11.51-9.82,18.72-7.14
		C329.7,233.03,325.84,246.87,323.92,253.72 M265.86,258.5l-0.08,0.19l-16.23-0.01c0.05-1.74,4.4-8.21,8.3-9.93
		c1.12-0.48,2.68-1.11,3.89-1.11c1.75,0.04,3.5,0.32,4.51,1.83C267.86,252.15,266.8,255.76,265.86,258.5 M284.33,241.56
		c-4.23-8.22-14.3-9.14-22.99-8.01c-1,0.16-2.06,0.38-3.06,0.59c-14.25,3.44-25.32,16.39-30.39,29.19c-2,5.43-4.12,11.45-4.45,17.47
		v3.17c0.11,2.47,0.67,4.95,1.62,7.36c2.89,6.13,9.74,8.39,16.31,8.81c5.74,0.16,11.47-0.16,16.92-1.07
		c2.21-0.37,4.41-0.86,6.57-1.45c2.95-5.75,8.42-17.86,8.42-17.86c-1.73,0.38-3.47,1.14-5.19,1.57c-2.96,0.75-6.4,1.77-9.8,2.31
		c-4.23,0.59-8.52,0.44-11.97-2.09c-2.56-1.99-2.78-5.38-2.28-8.39c0.34-0.86,0.34-1.94,1.12-2.58l35.42-0.02
		c2.17-6.13,5.26-13.04,5.44-19.87v-1.5C285.96,246.57,285.39,243.97,284.33,241.56 M224.81,231.89c-0.11,0.38,0.11,0.6,0.44,0.55
		c3.66,0.05,10.61-0.01,10.61-0.01s-3.94,11.78-5.96,17.34c0,0-7.39,0.03-11.16,0.19l-0.44,0.83l-8.04,23.54
		c-0.48,1.66-0.93,3.58,0.06,5.02c1.91,2.26,5.06,1.29,7.38,0.77c1.22-0.27,2.35-0.66,3.5-0.99c-2.68,6.06-5.53,12.13-8.26,18.08
		c-1.26,0.94-2.9,1.05-4.37,1.38c-6.24,1.16-14.45,2.37-19.75-1.71c-3.61-3.75-2.19-9.65-0.88-14.06
		c7.28-20.61,14.39-41.56,21.61-62.12c0,0,13.86-3.54,20.75-4.98L224.81,231.89 M199.15,233.14c-1.2,5.9-4.45,17.94-4.45,17.94
		c-4.26-2.43-9.61-3.45-14.91-2.62c-1.55,0.27-2.91,1.19-3.72,2.54c-1.91,4.57,2.88,7.7,5.32,11.06c4.06,5.6,5.45,13.52,2.83,19.86
		c-3.67,10.91-15.21,17.14-26.1,17.53c-6.4,0.22-12.67-0.86-18.25-2.63l4.39-19.23l0.74,0.4c5.2,3.31,11.97,5.91,18.21,3.1
		c1.48-0.77,2.46-2.26,2.52-3.86c-0.44-4.19-4.27-7.11-6.4-10.64c-3.55-4.74-4.81-11.8-2.57-17.54c2.13-7.27,8.75-14.77,16.19-16.75
		C181.1,229.56,191.11,231.16,199.15,233.14 M121.08,283.22c0,0-12.63,5.85-13.78,0c-1.65-8.37,18.55-13.24,18.55-13.24
		L121.08,283.22L121.08,283.22z M152.94,238.03c-1.72-3.15-5.09-4.78-8.31-5.49c-8.86-1.68-18.11,0-26.42,1.74
		c-0.56,0.16-5.31,1.2-6.97,1.79c-2.22,5.22-4.71,10.33-6.76,15.61c3.93-1.36,7.92-3.05,12.12-4.19c0.56-0.16,1.17-0.33,1.77-0.49
		c3.99-0.76,8.76-2.01,12.68-0.59c0.72,0.44,1.33,1.14,1.5,1.9c0.22,2.56-1.27,4.84-3.43,6.25c-3.82,2.39-8.2,3.32-12.52,4.34
		c-1.99,0.44-3.99,0.93-5.87,1.53c-9.19,2.39-18.49,8.7-21.81,18c-1.05,2.72-2,6.03-2.11,9.3v0.6c0.05,2.83,0.89,5.6,3.05,7.72
		c7.19,6.52,18.21,2.5,26.29,0.32l0.12,1.47h19.44c1.11-3.48,2.49-6.85,3.66-10.33l11.63-33.17c1.11-3.43,2.82-7.28,2.99-11.09
		v-0.98C153.94,240.8,153.58,239.36,152.94,238.03z M59.41,211.8l-6.98,52.81l31.24-52.79l28.01-0.02c0,0-20.49,57.66-30.64,86.11
		H63.15c2-5.66,20.85-59.25,20.85-59.25l-35.02,59.25H30.72l7.4-58.97L16.4,297.91H0l30.95-86.08L59.41,211.8"/>
</g>
</svg>
